<svg viewBox="330.5316455696203 179.77918552036198 618.0108499095841 651.0045248868778" xml:space="preserve" version="1.1" xmlns:xlink="http://www.w3.org/1999/xlink" xmlns="http://www.w3.org/2000/svg" style="max-height: 500px" width="618.0108499095841" height="651.0045248868778">
<desc>Created with Fabric.js 5.3.0</desc>
<defs>
</defs>
<g id="background-logo" transform="matrix(1 0 0 1 640 512)">
<rect height="1024" width="1280" ry="0" rx="0" y="-512" x="-640" paint-order="stroke" style="stroke: none; stroke-width: 0; stroke-dasharray: none; stroke-linecap: butt; stroke-dashoffset: 0; stroke-linejoin: miter; stroke-miterlimit: 4; fill: rgb(255,255,255); fill-opacity: 0; fill-rule: nonzero; opacity: 1;"/>
</g>
<g id="logo-logo" transform="matrix(1.9211538461538462 0 0 1.9211538461538462 640 356.96625429013176)">
<g paint-order="stroke" style="">
		<g transform="matrix(0.20101109161138014 0 0 -0.20101109161138014 1.3458728964180864 76.09981780584974)">
<path stroke-linecap="round" d="M 0 0 L -523.269 0 C -544.104 0 -560.994 16.89 -560.994 37.725 L -560.994 70.153 L 37.725 70.153 L 37.725 37.725 C 37.725 16.89 20.835 0 0 0" transform="translate(261.6345, -35.0765)" paint-order="stroke" style="stroke: none; stroke-width: 1; stroke-dasharray: none; stroke-linecap: butt; stroke-dashoffset: 0; stroke-linejoin: miter; stroke-miterlimit: 4; fill: rgb(247,187,87); fill-rule: nonzero; opacity: 1;"/>
</g>
		<g transform="matrix(0.20101109161138014 0 0 -0.20101109161138014 1.3458728964180864 76.09981780584974)">
<path stroke-linecap="round" d="M 0 0 L -523.269 0 C -544.104 0 -560.994 16.89 -560.994 37.725 L -560.994 70.153 L 37.725 70.153 L 37.725 37.725 C 37.725 16.89 20.835 0 0 0 Z" transform="translate(261.6345, -35.0765)" paint-order="stroke" style="stroke: rgb(106,27,8); stroke-width: 15; stroke-dasharray: none; stroke-linecap: round; stroke-dashoffset: 0; stroke-linejoin: round; stroke-miterlimit: 10; fill: none; fill-rule: nonzero; opacity: 1;"/>
</g>
		<g transform="matrix(0.20101109161138014 0 0 -0.20101109161138014 1.345892997527244 56.28476752918394)">
<path stroke-linecap="round" d="M 0 0 C -24.354 0 -46.701 -2.189 -64.218 -5.834 C -81.734 -2.189 -104.082 0 -128.436 0 C -152.78900000000002 0 -175.13600000000002 -2.189 -192.65300000000002 -5.834 C -210.17 -2.189 -232.517 0 -256.871 0 C -281.225 0 -303.572 -2.189 -321.088 -5.834 C -338.605 -2.189 -360.952 0 -385.306 0 C -441.51099999999997 0 -487.075 -11.643 -487.075 -26.005 C -487.075 -40.367 -441.51099999999997 -52.01 -385.306 -52.01 C -360.952 -52.01 -338.60499999999996 -49.821 -321.08799999999997 -46.176 C -303.57199999999995 -49.821000000000005 -281.22499999999997 -52.010000000000005 -256.871 -52.010000000000005 C -232.517 -52.010000000000005 -210.17 -49.821000000000005 -192.65299999999996 -46.176 C -175.13599999999997 -49.821000000000005 -152.78899999999996 -52.010000000000005 -128.43599999999998 -52.010000000000005 C -104.08199999999998 -52.010000000000005 -81.73399999999998 -49.821000000000005 -64.21799999999998 -46.176 C -46.70099999999998 -49.821000000000005 -24.353999999999978 -52.010000000000005 2.842170943040401e-14 -52.010000000000005 C 56.20500000000003 -52.010000000000005 101.76900000000003 -40.367000000000004 101.76900000000003 -26.005000000000006 C 101.769 -11.643 56.205 0 0 0" transform="translate(192.65299999999996, 26.005000000000003)" paint-order="stroke" style="stroke: none; stroke-width: 1; stroke-dasharray: none; stroke-linecap: butt; stroke-dashoffset: 0; stroke-linejoin: miter; stroke-miterlimit: 4; fill: rgb(165,216,105); fill-rule: nonzero; opacity: 1;"/>
</g>
		<g transform="matrix(0.20101109161138014 0 0 -0.20101109161138014 1.345892997527244 56.28476752918394)">
<path stroke-linecap="round" d="M 0 0 C -24.354 0 -46.701 -2.189 -64.218 -5.834 C -81.734 -2.189 -104.082 0 -128.436 0 C -152.78900000000002 0 -175.13600000000002 -2.189 -192.65300000000002 -5.834 C -210.17 -2.189 -232.517 0 -256.871 0 C -281.225 0 -303.572 -2.189 -321.088 -5.834 C -338.605 -2.189 -360.952 0 -385.306 0 C -441.51099999999997 0 -487.075 -11.643 -487.075 -26.005 C -487.075 -40.367 -441.51099999999997 -52.01 -385.306 -52.01 C -360.952 -52.01 -338.60499999999996 -49.821 -321.08799999999997 -46.176 C -303.57199999999995 -49.821000000000005 -281.22499999999997 -52.010000000000005 -256.871 -52.010000000000005 C -232.517 -52.010000000000005 -210.17 -49.821000000000005 -192.65299999999996 -46.176 C -175.13599999999997 -49.821000000000005 -152.78899999999996 -52.010000000000005 -128.43599999999998 -52.010000000000005 C -104.08199999999998 -52.010000000000005 -81.73399999999998 -49.821000000000005 -64.21799999999998 -46.176 C -46.70099999999998 -49.821000000000005 -24.353999999999978 -52.010000000000005 2.842170943040401e-14 -52.010000000000005 C 56.20500000000003 -52.010000000000005 101.76900000000003 -40.367000000000004 101.76900000000003 -26.005000000000006 C 101.769 -11.643 56.205 0 0 0 Z" transform="translate(192.65299999999996, 26.005000000000003)" paint-order="stroke" style="stroke: rgb(106,27,8); stroke-width: 15; stroke-dasharray: none; stroke-linecap: round; stroke-dashoffset: 0; stroke-linejoin: round; stroke-miterlimit: 10; fill: none; fill-rule: nonzero; opacity: 1;"/>
</g>
		<g transform="matrix(0.20101109161138014 0 0 -0.20101109161138014 0.8596069647010154 38.29316926896155)">
<path stroke-linecap="round" d="M 0 0 L 299.964 31.448 L 593.881 0 L 299.964 -47.172 Z" transform="translate(-296.9405, 7.861999999999995)" paint-order="stroke" style="stroke: none; stroke-width: 1; stroke-dasharray: none; stroke-linecap: butt; stroke-dashoffset: 0; stroke-linejoin: miter; stroke-miterlimit: 4; fill: rgb(252,196,50); fill-rule: nonzero; opacity: 1;"/>
</g>
		<g transform="matrix(0.20101109161138014 0 0 -0.20101109161138014 0.8596069647010154 38.29316926896155)">
<path stroke-linecap="round" d="M 0 0 L 299.964 31.448 L 593.881 0 L 299.964 -47.172 Z" transform="translate(-296.9405, 7.861999999999995)" paint-order="stroke" style="stroke: rgb(106,27,8); stroke-width: 15; stroke-dasharray: none; stroke-linecap: round; stroke-dashoffset: 0; stroke-linejoin: round; stroke-miterlimit: 10; fill: none; fill-rule: nonzero; opacity: 1;"/>
</g>
		<g transform="matrix(0.20101109161138014 0 0 -0.20101109161138014 1.3459331997455593 2.826953175032031)">
<path stroke-linecap="round" d="M 0 0 L -540.042 0 C -553.5740000000001 0 -564.542 10.969 -564.542 24.5 L -564.542 39.269 C -564.542 52.8 -553.5740000000001 63.769 -540.042 63.769 L 0 63.769 C 13.531 63.769 24.5 52.8 24.5 39.269 L 24.5 24.5 C 24.5 10.969 13.531 0 0 0" transform="translate(270.021, -31.8845)" paint-order="stroke" style="stroke: none; stroke-width: 1; stroke-dasharray: none; stroke-linecap: butt; stroke-dashoffset: 0; stroke-linejoin: miter; stroke-miterlimit: 4; fill: rgb(140,80,65); fill-rule: nonzero; opacity: 1;"/>
</g>
		<g transform="matrix(0.20101109161138014 0 0 -0.20101109161138014 1.3459331997455593 2.826953175032031)">
<path stroke-linecap="round" d="M 0 0 L -540.042 0 C -553.5740000000001 0 -564.542 10.969 -564.542 24.5 L -564.542 39.269 C -564.542 52.8 -553.5740000000001 63.769 -540.042 63.769 L 0 63.769 C 13.531 63.769 24.5 52.8 24.5 39.269 L 24.5 24.5 C 24.5 10.969 13.531 0 0 0 Z" transform="translate(270.021, -31.8845)" paint-order="stroke" style="stroke: rgb(106,27,8); stroke-width: 15; stroke-dasharray: none; stroke-linecap: round; stroke-dashoffset: 0; stroke-linejoin: round; stroke-miterlimit: 10; fill: none; fill-rule: nonzero; opacity: 1;"/>
</g>
		<g transform="matrix(0.20101109161138014 0 0 -0.20101109161138014 -22.574426904226982 20.31495834744041)">
<path stroke-linecap="round" d="M 0 0 L -295.676 0 C -309.20799999999997 0 -320.176 10.969 -320.176 24.5 L -320.176 28.651 C -320.176 42.182 -309.20799999999997 53.150999999999996 -295.676 53.150999999999996 L 0 53.151 C 13.531 53.151 24.5 42.182 24.5 28.651000000000003 L 24.5 24.5 C 24.5 10.969 13.531 0 0 0" transform="translate(147.838, -26.5755)" paint-order="stroke" style="stroke: none; stroke-width: 1; stroke-dasharray: none; stroke-linecap: butt; stroke-dashoffset: 0; stroke-linejoin: miter; stroke-miterlimit: 4; fill: rgb(244,76,83); fill-rule: nonzero; opacity: 1;"/>
</g>
		<g transform="matrix(0.20101109161138014 0 0 -0.20101109161138014 -22.574426904226982 20.31495834744041)">
<path stroke-linecap="round" d="M 0 0 L -295.676 0 C -309.20799999999997 0 -320.176 10.969 -320.176 24.5 L -320.176 28.651 C -320.176 42.182 -309.20799999999997 53.150999999999996 -295.676 53.150999999999996 L 0 53.151 C 13.531 53.151 24.5 42.182 24.5 28.651000000000003 L 24.5 24.5 C 24.5 10.969 13.531 0 0 0 Z" transform="translate(147.838, -26.5755)" paint-order="stroke" style="stroke: rgb(106,27,8); stroke-width: 15; stroke-dasharray: none; stroke-linecap: round; stroke-dashoffset: 0; stroke-linejoin: round; stroke-miterlimit: 10; fill: none; fill-rule: nonzero; opacity: 1;"/>
</g>
		<g transform="matrix(0.20101109161138014 0 0 -0.20101109161138014 25.86924617411563 20.31495834744041)">
<path stroke-linecap="round" d="M 0 0 L -295.676 0 C -309.207 0 -320.176 10.969 -320.176 24.5 L -320.176 28.651 C -320.176 42.182 -309.207 53.150999999999996 -295.676 53.150999999999996 L 0 53.151 C 13.531 53.151 24.5 42.182 24.5 28.651000000000003 L 24.5 24.5 C 24.5 10.969 13.531 0 0 0" transform="translate(147.838, -26.5755)" paint-order="stroke" style="stroke: none; stroke-width: 1; stroke-dasharray: none; stroke-linecap: butt; stroke-dashoffset: 0; stroke-linejoin: miter; stroke-miterlimit: 4; fill: rgb(244,76,83); fill-rule: nonzero; opacity: 1;"/>
</g>
		<g transform="matrix(0.20101109161138014 0 0 -0.20101109161138014 25.86924617411563 20.31495834744041)">
<path stroke-linecap="round" d="M 0 0 L -295.676 0 C -309.207 0 -320.176 10.969 -320.176 24.5 L -320.176 28.651 C -320.176 42.182 -309.207 53.150999999999996 -295.676 53.150999999999996 L 0 53.151 C 13.531 53.151 24.5 42.182 24.5 28.651000000000003 L 24.5 24.5 C 24.5 10.969 13.531 0 0 0 Z" transform="translate(147.838, -26.5755)" paint-order="stroke" style="stroke: rgb(106,27,8); stroke-width: 15; stroke-dasharray: none; stroke-linecap: round; stroke-dashoffset: 0; stroke-linejoin: round; stroke-miterlimit: 10; fill: none; fill-rule: nonzero; opacity: 1;"/>
</g>
		<g transform="matrix(0.20101109161138014 0 0 -0.20101109161138014 -9.28757678013966 -45.38545012834874)">
<path stroke-linecap="round" d="M 0 0 C -54.435 87.358 -210.237 89.245 -348.446 4.082 C -486.65500000000003 -81.08200000000001 -555.019 -221.098 -501.462 -308.996 z" transform="translate(259.85071558388677, 121.120132406485)" paint-order="stroke" style="stroke: none; stroke-width: 1; stroke-dasharray: none; stroke-linecap: butt; stroke-dashoffset: 0; stroke-linejoin: miter; stroke-miterlimit: 4; fill: rgb(247,187,87); fill-rule: nonzero; opacity: 1;"/>
</g>
		<g transform="matrix(0.20101109161138014 0 0 -0.20101109161138014 -9.28757678013966 -45.38545012834874)">
<path stroke-linecap="round" d="M 0 0 C -54.435 87.358 -210.237 89.245 -348.446 4.082 C -486.65500000000003 -81.08200000000001 -555.019 -221.098 -501.462 -308.996 z" transform="translate(259.85071558388677, 121.120132406485)" paint-order="stroke" style="stroke: rgb(106,27,8); stroke-width: 15; stroke-dasharray: none; stroke-linecap: round; stroke-dashoffset: 0; stroke-linejoin: round; stroke-miterlimit: 10; fill: none; fill-rule: nonzero; opacity: 1;"/>
</g>
		<g transform="matrix(0.20101109161138014 0 0 -0.20101109161138014 -1.198907422272896 -20.034379992785972)">
<path stroke-linecap="round" d="M 0 0 C 0 -19.33 -15.67 -35 -35 -35 C -54.33 -35 -70 -19.33 -70 0 C -70 19.33 -54.33 35 -35 35 C -15.67 35 0 19.33 0 0" transform="translate(35, 0)" paint-order="stroke" style="stroke: none; stroke-width: 1; stroke-dasharray: none; stroke-linecap: butt; stroke-dashoffset: 0; stroke-linejoin: miter; stroke-miterlimit: 4; fill: rgb(252,196,50); fill-rule: nonzero; opacity: 1;"/>
</g>
		<g transform="matrix(0.20101109161138014 0 0 -0.20101109161138014 -1.198907422272896 -20.034379992785972)">
<path stroke-linecap="round" d="M 0 0 C 0 -19.33 -15.67 -35 -35 -35 C -54.33 -35 -70 -19.33 -70 0 C -70 19.33 -54.33 35 -35 35 C -15.67 35 0 19.33 0 0 Z" transform="translate(35, 0)" paint-order="stroke" style="stroke: rgb(106,27,8); stroke-width: 15; stroke-dasharray: none; stroke-linecap: round; stroke-dashoffset: 0; stroke-linejoin: round; stroke-miterlimit: 10; fill: none; fill-rule: nonzero; opacity: 1;"/>
</g>
		<g transform="matrix(0.20101109161138014 0 0 -0.20101109161138014 4.831445427177698 -26.6179957707877)">
<path stroke-linecap="round" d="M 0 0 C 0 36.177 29.327 65.505 65.504 65.505 C 101.682 65.505 131.00900000000001 36.17699999999999 131.00900000000001 0" transform="translate(-65.50450000000001, -32.7525)" paint-order="stroke" style="stroke: rgb(106,27,8); stroke-width: 15; stroke-dasharray: none; stroke-linecap: round; stroke-dashoffset: 0; stroke-linejoin: round; stroke-miterlimit: 10; fill: none; fill-rule: nonzero; opacity: 1;"/>
</g>
		<g transform="matrix(0.20101109161138014 0 0 -0.20101109161138014 32.97297815166178 -25.863701649516003)">
<path stroke-linecap="round" d="M 0 0 C 0 -19.33 -15.67 -35 -35 -35 C -54.33 -35 -70 -19.33 -70 0 C -70 19.33 -54.33 35 -35 35 C -15.67 35 0 19.33 0 0" transform="translate(35, 0)" paint-order="stroke" style="stroke: none; stroke-width: 1; stroke-dasharray: none; stroke-linecap: butt; stroke-dashoffset: 0; stroke-linejoin: miter; stroke-miterlimit: 4; fill: rgb(252,196,50); fill-rule: nonzero; opacity: 1;"/>
</g>
		<g transform="matrix(0.20101109161138014 0 0 -0.20101109161138014 32.97297815166178 -25.863701649516003)">
<path stroke-linecap="round" d="M 0 0 C 0 -19.33 -15.67 -35 -35 -35 C -54.33 -35 -70 -19.33 -70 0 C -70 19.33 -54.33 35 -35 35 C -15.67 35 0 19.33 0 0 Z" transform="translate(35, 0)" paint-order="stroke" style="stroke: rgb(106,27,8); stroke-width: 15; stroke-dasharray: none; stroke-linecap: round; stroke-dashoffset: 0; stroke-linejoin: round; stroke-miterlimit: 10; fill: none; fill-rule: nonzero; opacity: 1;"/>
</g>
		<g transform="matrix(0.20101109161138014 0 0 -0.20101109161138014 39.00333100111237 -32.44731742751776)">
<path stroke-linecap="round" d="M 0 0 C 0 36.177 29.327 65.505 65.504 65.505 C 101.682 65.505 131.00900000000001 36.17699999999999 131.00900000000001 0" transform="translate(-65.50450000000001, -32.7525)" paint-order="stroke" style="stroke: rgb(106,27,8); stroke-width: 15; stroke-dasharray: none; stroke-linecap: round; stroke-dashoffset: 0; stroke-linejoin: round; stroke-miterlimit: 10; fill: none; fill-rule: nonzero; opacity: 1;"/>
</g>
		<g transform="matrix(0.20101109161138014 0 0 -0.20101109161138014 -46.72791967225044 -39.733466970701215)">
<path stroke-linecap="round" d="M 0 0 L 25 50" transform="translate(-12.5, -25)" paint-order="stroke" style="stroke: rgb(255,239,204); stroke-width: 15; stroke-dasharray: none; stroke-linecap: round; stroke-dashoffset: 0; stroke-linejoin: round; stroke-miterlimit: 10; fill: none; fill-rule: nonzero; opacity: 1;"/>
</g>
		<g transform="matrix(0.20101109161138014 0 0 -0.20101109161138014 -3.7115460674150995 -68.27704197951718)">
<path stroke-linecap="round" d="M 0 0 L 25 50" transform="translate(-12.5, -25)" paint-order="stroke" style="stroke: rgb(255,239,204); stroke-width: 15; stroke-dasharray: none; stroke-linecap: round; stroke-dashoffset: 0; stroke-linejoin: round; stroke-miterlimit: 10; fill: none; fill-rule: nonzero; opacity: 1;"/>
</g>
		<g transform="matrix(0.20101109161138014 0 0 -0.20101109161138014 12.36936136260448 -71.09119726207658)">
<path stroke-linecap="round" d="M 0 0 L -54.62 -11.902" transform="translate(27.31, 5.951)" paint-order="stroke" style="stroke: rgb(255,239,204); stroke-width: 15; stroke-dasharray: none; stroke-linecap: round; stroke-dashoffset: 0; stroke-linejoin: round; stroke-miterlimit: 10; fill: none; fill-rule: nonzero; opacity: 1;"/>
</g>
		<g transform="matrix(0.20101109161138014 0 0 -0.20101109161138014 -22.40553738505514 -62.04569813956445)">
<path stroke-linecap="round" d="M 0 0 L -41.695 37.236" transform="translate(20.8475, -18.618)" paint-order="stroke" style="stroke: rgb(255,239,204); stroke-width: 15; stroke-dasharray: none; stroke-linecap: round; stroke-dashoffset: 0; stroke-linejoin: round; stroke-miterlimit: 10; fill: none; fill-rule: nonzero; opacity: 1;"/>
</g>
		<g transform="matrix(0.20101109161138014 0 0 -0.20101109161138014 -31.250105820392548 -49.38201946915666)">
<path stroke-linecap="round" d="M 0 0 L -54.059 14.238" transform="translate(27.0295, -7.119)" paint-order="stroke" style="stroke: rgb(255,239,204); stroke-width: 15; stroke-dasharray: none; stroke-linecap: round; stroke-dashoffset: 0; stroke-linejoin: round; stroke-miterlimit: 10; fill: none; fill-rule: nonzero; opacity: 1;"/>
</g>
</g>
</g>
<g id="text-logo" transform="matrix(1.9211538461538462 0 0 1.9211538461538462 642.0729249999999 631.4292917478821)">
<g paint-order="stroke" style="">
		<g id="text-logo-path-0" transform="matrix(1 0 0 1 0 0)">
<path stroke-linecap="round" d="M 15.85 -48.64 L 15.85 -36.19 L 21.66 -36.19 L 21.66 -48.64 C 21.66 -54.03 17.1 -58.52 11.62 -58.52 C 6.31 -58.52 1.74 -54.03 1.74 -48.64 L 1.74 -40.34 C 1.74 -35.36 6.06 -30.88 9.63 -27.06 C 13.2 -23.32 15.85 -20.42 15.85 -17.76 L 15.85 -9.46 C 15.85 -6.89 14.36 -5.4 11.62 -5.4 C 9.05 -5.4 7.55 -6.89 7.55 -9.46 L 7.55 -21.91 L 1.74 -21.91 L 1.74 -9.46 C 1.74 -4.07 6.31 0.42 11.62 0.42 C 17.1 0.42 21.66 -4.07 21.66 -9.46 L 21.66 -17.76 C 21.66 -22.83 17.43 -27.22 13.78 -31.04 C 10.38 -34.78 7.55 -37.77 7.55 -40.34 L 7.55 -48.64 C 7.55 -51.21 9.05 -52.71 11.62 -52.71 C 14.36 -52.71 15.85 -51.21 15.85 -48.64 Z M 48.22 -58.1 L 42.41 -58.1 L 42.41 0 L 48.22 0 L 48.22 -26.56 L 56.52 -26.56 L 56.52 0 L 62.33 0 L 62.33 -58.1 L 56.52 -58.1 L 56.52 -31.96 L 48.22 -31.96 Z M 95.53 -58.1 L 89.72 -58.1 L 81.84 0 L 87.65 0 L 88.89 -9.96 L 96.36 -9.96 L 97.61 0 L 103.42 0 Z M 89.47 -15.36 L 92.63 -41 L 95.78 -15.36 Z M 138.69 -58.1 L 122.92 -58.1 L 122.92 0 L 128.73 0 L 128.73 -26.56 L 136.2 -26.56 L 136.2 -31.96 L 128.73 -31.96 L 128.73 -52.71 L 138.69 -52.71 Z M 167.66 -52.71 L 174.71 -52.71 L 174.71 -58.1 L 154.79 -58.1 L 154.79 -52.71 L 161.85 -52.71 L 161.85 0 L 167.66 0 Z" transform="translate(-88.225, 29.05)" paint-order="stroke" style="stroke: rgb(107,28,9); stroke-width: 6; stroke-dasharray: none; stroke-linecap: butt; stroke-dashoffset: 0; stroke-linejoin: miter; stroke-miterlimit: 4; fill: rgb(247,187,87); fill-rule: nonzero; opacity: 1;"/>
</g>
</g>
</g>
<g id="tagline-6535ed97-37c6-4d44-8a89-97168fe23115-logo" transform="matrix(1.9211538461538462 0 0 1.9211538461538462 640.2856966805283 778.3753308636692)">
<g paint-order="stroke" style="">
		<g id="tagline-6535ed97-37c6-4d44-8a89-97168fe23115-logo-path-0" transform="matrix(1 0 0 1 0 0)">
<path stroke-linecap="round" d="M 1.45 -30.8 L 1.45 0 L 5.85 0 L 5.85 -13.2 L 11.57 -13.2 L 11.57 -17.6 L 5.85 -17.6 L 5.85 -26.4 L 14.21 -26.4 L 14.21 -30.8 Z M 32.52 0 L 36.92 0 L 36.92 -11 L 40.04 -11 L 40.08 -11 L 43.08 0 L 47.48 0 L 44.18 -12.28 C 46.16 -13.64 47.48 -15.88 47.48 -18.44 L 47.48 -23.36 C 47.48 -27.41 44.09 -30.8 40.04 -30.8 L 32.52 -30.8 Z M 36.92 -15.4 L 36.92 -26.4 L 40 -26.4 C 41.67 -26.4 43.08 -24.99 43.08 -23.32 L 43.08 -18.48 C 43.08 -16.81 41.67 -15.4 40 -15.4 Z M 65.78 -30.8 L 65.78 0 L 78.54 0 L 78.54 -4.4 L 70.18 -4.4 L 70.18 -13.2 L 75.9 -13.2 L 75.9 -17.6 L 70.18 -17.6 L 70.18 -26.4 L 78.54 -26.4 L 78.54 -30.8 Z M 104.28 0.22 C 108.5 0.22 111.8 -3.17 111.8 -7.22 C 111.8 -15.53 101.24 -18.7 101.24 -23.54 C 101.24 -25.21 102.61 -26.62 104.32 -26.62 C 106 -26.62 107.4 -25.21 107.4 -23.54 L 107.4 -22 L 111.8 -22 L 111.8 -23.58 C 111.8 -27.63 108.42 -31.02 104.37 -31.02 C 100.14 -31.02 96.84 -27.63 96.84 -23.58 C 96.84 -16.06 107.4 -12.85 107.4 -7.26 C 107.4 -5.59 106.04 -4.18 104.32 -4.18 C 102.65 -4.18 101.24 -5.59 101.24 -7.26 L 101.24 -8.8 L 96.84 -8.8 L 96.84 -7.22 C 96.84 -3.17 100.23 0.22 104.28 0.22 Z M 130.11 -30.8 L 130.11 0 L 134.51 0 L 134.51 -13.2 L 140.67 -13.2 L 140.67 0 L 145.07 0 L 145.07 -30.8 L 140.67 -30.8 L 140.67 -17.6 L 134.51 -17.6 L 134.51 -30.8 Z M 187.57 -30.8 L 187.57 0 L 191.97 0 L 191.97 -13.2 L 197.69 -13.2 L 197.69 -17.6 L 191.97 -17.6 L 191.97 -26.4 L 200.33 -26.4 L 200.33 -30.8 Z M 228.32 -23.54 L 228.32 -7.26 C 228.32 -5.59 226.91 -4.18 225.24 -4.18 C 223.52 -4.18 222.16 -5.59 222.16 -7.26 L 222.16 -23.54 C 222.16 -25.21 223.52 -26.62 225.24 -26.62 C 226.91 -26.62 228.32 -25.21 228.32 -23.54 Z M 217.76 -7.22 C 217.76 -3.17 221.06 0.22 225.28 0.22 C 229.33 0.22 232.72 -3.17 232.72 -7.22 L 232.72 -23.58 C 232.72 -27.63 229.33 -31.02 225.28 -31.02 C 221.06 -31.02 217.76 -27.63 217.76 -23.58 Z M 261.58 -23.54 L 261.58 -7.26 C 261.58 -5.59 260.17 -4.18 258.5 -4.18 C 256.78 -4.18 255.42 -5.59 255.42 -7.26 L 255.42 -23.54 C 255.42 -25.21 256.78 -26.62 258.5 -26.62 C 260.17 -26.62 261.58 -25.21 261.58 -23.54 Z M 251.02 -7.22 C 251.02 -3.17 254.32 0.22 258.54 0.22 C 262.59 0.22 265.98 -3.17 265.98 -7.22 L 265.98 -23.58 C 265.98 -27.63 262.59 -31.02 258.54 -31.02 C 254.32 -31.02 251.02 -27.63 251.02 -23.58 Z M 284.28 0 L 291.81 0 C 295.86 0 299.24 -3.39 299.24 -7.44 L 299.24 -23.36 C 299.24 -27.41 295.86 -30.8 291.81 -30.8 L 284.28 -30.8 Z M 288.68 -4.4 L 288.68 -26.4 L 291.76 -26.4 C 293.44 -26.4 294.84 -24.99 294.84 -23.32 L 294.84 -7.48 C 294.84 -5.81 293.44 -4.4 291.76 -4.4 Z" transform="translate(-150.345, 15.4)" paint-order="stroke" style="stroke: none; stroke-width: 0; stroke-dasharray: none; stroke-linecap: butt; stroke-dashoffset: 0; stroke-linejoin: miter; stroke-miterlimit: 4; fill: rgb(106,27,8); fill-rule: nonzero; opacity: 1;"/>
</g>
</g>
</g>
</svg>